<?xml version="1.0" standalone="no"?><!DOCTYPE svg PUBLIC "-//W3C//DTD SVG 1.1//EN" "http://www.w3.org/Graphics/SVG/1.1/DTD/svg11.dtd"><svg t="1720672649354" class="icon" viewBox="0 0 1024 1024" version="1.1" xmlns="http://www.w3.org/2000/svg" p-id="4275" xmlns:xlink="http://www.w3.org/1999/xlink" width="200" height="200"><path d="M832 102.4A89.6 89.6 0 0 1 921.6 192v640a89.6 89.6 0 0 1-89.6 89.6H192A89.6 89.6 0 0 1 102.4 832V192A89.6 89.6 0 0 1 192 102.4z m38.4 505.6H153.536L153.6 832a38.4 38.4 0 0 0 32.192 37.888L192 870.4h640a38.4 38.4 0 0 0 38.4-38.4V608z m0-256H153.536v192H870.4v-192zM832 153.6H192a38.4 38.4 0 0 0-38.4 38.4l-0.064 96H870.4V192a38.4 38.4 0 0 0-32.192-37.888L832 153.6z" fill="#6C7D8F" p-id="4276"></path></svg>